Noted filmmaker and media critic Peter Watkins directs this mammoth six-hour-long look at the legendary Paris Commune of 1871. Following the humiliating defeat of France in the Franco-Prussian War, the reign of Napoleon III collapsed in the resulting public foment. While a new regime headed under the Government of National Defense tried to shore up power, a band of commoners took the reigns of power for themselves and created the Paris Commune, a government defiantly separate from the state operating under a sort of proto-Marxist ethos. Inevitably, the Commune was brutally suppressed by French troops. Watkins' treatment of the event juxtaposes the present with the past -- modern day CNN-style reporting with historical fact. 

Part 1
   General
      Complete name : La.Commune.Paris.1871.(2000).DVDRIP-MKO CD1.avi
      Format : AVI
      Format/Info : Audio Video Interleave
      File size : 1.40 GiB
      Duration : 2h 44mn
      Overall bit rate : 1 224 Kbps
      Writing application : VirtualDubMod 1.5.10.2 (build 2540/release)
      Writing library : VirtualDub build 32593/release
   Video #0
      ID : 0
      Format : MPEG-4 Visual
      Format profile : Simple@L1
      Format settings, BVOP : No
      Format settings, QPel : No
      Format settings, GMC : No warppoints
      Format settings, Matrix : Default (H.263)
      Codec ID : DIVX
      Codec ID/Info : Project Mayo
      Codec ID/Hint : DivX 4
      Duration : 2h 44mn
      Bit rate : 1 086 Kbps
      Width : 624 pixels
      Height : 384 pixels
      Display aspect ratio : 1.625
      Frame rate : 25.000 fps
      Resolution : 24 bits
      Colorimetry : 4:2:0
      Scan type : Progressive
      Bits/(Pixel*Frame) : 0.181
      Stream size : 1.25 GiB (89%)
      Writing library : FFmpeg0.4.6b4669
   Audio #1
      ID : 1
      Format : MPEG Audio
      Format version : Version 1
      Format profile : Layer 3
      Codec ID : 55
      Codec ID/Hint : MP3
      Duration : 2h 44mn
      Bit rate mode : Constant
      Bit rate : 128 Kbps
      Channel(s) : 2 channels
      Sampling rate : 48.0 KHz
      Resolution : 16 bits
      Stream size : 150 MiB (10%)
      Alignment : Aligned on interleaves
      Interleave, duration : 40 ms (1.00 video frame)
      Interleave, preload duration : 504 ms
      Writing library : LAME3.98 
      Encoding settings : -m j -V 4 -q 3 -lowpass 17 -b 128

Part 2
   General
      Complete name : La.Commune.Paris.1871.(2000).DVDRIP-MKO CD2.avi
      Format : AVI
      Format/Info : Audio Video Interleave
      File size : 1.41 GiB
      Duration : 3h 1mn
      Overall bit rate : 1 111 Kbps
      Writing application : VirtualDubMod 1.5.10.2 (build 2540/release)
      Writing library : VirtualDub build 32593/release
   Video #0
      ID : 0
      Format : MPEG-4 Visual
      Format profile : Simple@L1
      Format settings, BVOP : No
      Format settings, QPel : No
      Format settings, GMC : No warppoints
      Format settings, Matrix : Default (H.263)
      Codec ID : DIVX
      Codec ID/Info : Project Mayo
      Codec ID/Hint : DivX 4
      Duration : 3h 1mn
      Bit rate : 973 Kbps
      Width : 624 pixels
      Height : 384 pixels
      Display aspect ratio : 1.625
      Frame rate : 25.000 fps
      Resolution : 24 bits
      Colorimetry : 4:2:0
      Scan type : Progressive
      Bits/(Pixel*Frame) : 0.162
      Stream size : 1.23 GiB (88%)
      Writing library : FFmpeg0.4.6b4669
   Audio #1
      ID : 1
      Format : MPEG Audio
      Format version : Version 1
      Format profile : Layer 3
      Codec ID : 55
      Codec ID/Hint : MP3
      Duration : 3h 1mn
      Bit rate mode : Constant
      Bit rate : 128 Kbps
      Channel(s) : 2 channels
      Sampling rate : 48.0 KHz
      Resolution : 16 bits
      Stream size : 166 MiB (12%)
      Alignment : Aligned on interleaves
      Interleave, duration : 40 ms (1.00 video frame)
      Interleave, preload duration : 504 ms
      Writing library : LAME3.98 
      Encoding settings : -m j -V 4 -q 3 -lowpass 17 -b 128
 
http://www.imdb.com/title/tt0257497/

French audio; English and Portuguese subtitles

Peter Watkins - La commune (Paris, 1871) 